<svg width="720" height="720" viewBox="0 0 720 720" fill="none" xmlns="http://www.w3.org/2000/svg">
<g clip-path="url(#clip0_1_3)">
<rect width="720" height="720" fill="white"/>
<g clip-path="url(#clip1_1_3)" filter="url(#filter0_d_1_3)">
<mask id="mask0_1_3" style="mask-type:luminance" maskUnits="userSpaceOnUse" x="-794" y="-214" width="1952" height="1437">
<path d="M-793.085 -213.055H1157.51V1222.3H-793.085V-213.055Z" fill="white"/>
</mask>
<g mask="url(#mask0_1_3)">
<path d="M-890.724 708.596L-845.929 644.531L-693.716 664.476L-520.825 518.831L-395.609 422.734L-357.132 396.14L-270.393 313.34L-186.541 206.975L-91.762 40.7748L-16.5202 -48.064L63.8912 -137.503L219.544 -285.577M847.345 -285.577L862.853 -268.652L901.339 -229.371L940.395 -210.026L1028.28 -138.113L1117.88 -92.1835L1170.14 -68.6092L1254.58 -19.051M1254.58 200.327L1205.76 222.691L944.415 333.285L486.635 539.976L391.865 1293.62M-447.303 1293.62L-593.197 1163.07L-823.522 1062.75L-888.425 993.848L-890.724 991.438" stroke="#FF0000" stroke-width="1.28009" stroke-miterlimit="10" stroke-linecap="round" stroke-linejoin="round" stroke-dasharray="50 20"/>
</g>
<mask id="mask1_1_3" style="mask-type:luminance" maskUnits="userSpaceOnUse" x="158" y="348" width="528" height="875">
<path d="M158.979 348.598H685.457V1222.3H158.979V348.598Z" fill="white"/>
</mask>
<g mask="url(#mask1_1_3)">
<path d="M683.074 1293.62L668.135 1271.25L649.187 1226.53L649.757 1209.61V1176.36L650.337 1160.05V1143.73L650.907 1126.81V1110.49L651.477 1095.98L644.588 1080.88L638.269 1065.77L631.379 1051.26L625.06 1036.16L618.171 1021.05L611.851 1005.93L604.952 990.829L600.363 980.551L596.913 964.235L592.894 947.919L589.444 932.203L586.004 915.886L581.984 899.57L577.385 883.254L572.795 867.538L568.196 851.832L563.027 836.115L559.007 821.009L549.818 807.102L541.199 793.206L532.58 779.909L528.561 773.26L510.183 746.667L500.423 733.37L491.225 720.073L483.765 709.196L472.277 697.718L461.358 686.231L449.869 674.754L438.96 662.667L433.791 657.828L425.752 643.321L417.712 629.425L409.094 614.918L407.374 611.289L401.054 596.183L395.305 580.466L390.136 567.779L389.566 565.36L383.246 550.253L378.077 536.357L373.478 520.64L368.308 505.534L357.969 474.102L354.529 462.015L350.51 446.308L348.78 440.86L344.191 429.982L331.552 419.715L324.083 413.666L311.445 403.398L298.815 393.721L297.666 392.511L282.157 387.682L271.818 385.263L256.31 389.492L246.542 391.911L231.033 389.492L223.564 387.682L213.805 382.843L209.206 380.424L198.297 374.985L184.508 365.927L171.3 357.459L160.391 350.211" stroke="#A6ABED" stroke-width="1.28009" stroke-miterlimit="10" stroke-linecap="round" stroke-linejoin="round"/>
</g>
<mask id="mask2_1_3" style="mask-type:luminance" maskUnits="userSpaceOnUse" x="376" y="-214" width="755" height="543">
<path d="M376.75 -213.055H1130.57V328.456H376.75V-213.055Z" fill="white"/>
</mask>
<g mask="url(#mask2_1_3)">
<path d="M1126.49 -285.578L1123.05 -282.548L1112.14 -270.461L1105.24 -263.813L1101.8 -259.584L1089.73 -248.706L1077.67 -237.829L1066.18 -226.952L1054.12 -216.074L1042.63 -205.197L1029.43 -197.339L1015.64 -188.881L1001.85 -181.022L988.07 -172.555L976.581 -165.916L962.793 -157.448L949.005 -148.99L935.226 -141.132L921.438 -132.674L909.949 -121.187L898.46 -110.309L886.401 -99.4319L881.812 -94.5931L870.323 -83.1157L858.834 -71.6286L847.916 -60.1512L843.896 -56.5221L834.137 -43.2252L824.948 -29.9284L815.179 -16.6316L805.411 -3.94452L796.221 9.3523L790.482 17.2104L781.293 31.1072L772.104 44.404L763.485 58.3007L754.296 71.5975L745.107 85.5041L736.488 98.8009L729.019 110.278L718.68 122.975L708.341 135.662L698.002 148.359L687.663 160.446L666.986 185.82L656.647 198.517L646.308 210.604L643.438 214.833L630.229 223.901L617.021 233.569L603.812 242.637L591.173 251.705L577.965 261.372L570.496 266.811L556.137 273.459L541.779 280.708L527.411 287.356L513.052 294.614L506.163 297.634L475.146 303.672L459.638 306.701L444.13 309.721L438.39 310.93L426.322 313.34L422.882 313.95L418.283 315.159L403.354 318.789L387.846 323.018L380.377 324.827" stroke="#003994" stroke-width="1.92013" stroke-miterlimit="10" stroke-linecap="round" stroke-linejoin="round"/>
</g>
<path d="M380.377 324.827L364.868 321.808L357.969 320.598H342.461L326.383 319.988H290.197L274.688 323.017L259.18 325.427L243.672 328.456L236.782 329.666L234.483 330.266L221.274 333.285L206.336 336.914L190.828 340.543L182.218 342.353L167.28 347.792L160.391 350.211" stroke="#003994" stroke-width="1.92013" stroke-miterlimit="10" stroke-linecap="round" stroke-linejoin="round"/>
<path d="M160.39 350.211L152.342 353.23L137.413 358.069L133.964 359.879L119.605 367.137L105.247 375.595L91.4584 384.663L78.2497 393.121L75.9501 394.33L65.6113 406.418L59.8716 412.456L50.6825 425.753L47.2331 429.982L34.5947 440.859L25.9852 448.118L11.6267 453.556L-3.31139 459.595L-18.2495 465.643L-22.2691 466.853L-37.1978 472.292L-52.1359 477.121L-67.0646 481.96L-80.8529 486.798L-96.3612 488.008L-111.869 489.208L-123.928 490.418L-139.437 489.818L-155.525 489.208L-171.033 488.608H-184.242L-199.75 486.798L-215.258 484.379L-230.766 482.569L-236.506 481.96L-249.145 476.521" stroke="#003994" stroke-width="1.92013" stroke-miterlimit="10" stroke-linecap="round" stroke-linejoin="round"/>
<mask id="mask3_1_3" style="mask-type:luminance" maskUnits="userSpaceOnUse" x="376" y="320" width="782" height="384">
<path d="M376.75 320.903H1157.51V703.6H376.75V320.903Z" fill="white"/>
</mask>
<g mask="url(#mask3_1_3)">
<path d="M1254.58 701.338H1232.75L1201.74 697.718L1186.23 696.509L1182.78 695.899L1167.27 693.489L1151.76 691.07L1135.68 688.651L1125.92 687.441L1110.41 683.212L1094.9 679.583L1079.97 675.963L1071.93 673.544L1056.99 669.915L1041.48 666.286L1025.98 662.667L1010.47 659.038L1008.75 658.438L993.81 653.599L978.881 648.76L963.943 643.931L948.435 638.492L946.715 637.883L932.926 630.634L918.568 623.376L904.779 616.128L890.421 608.879L889.271 608.27L876.062 599.202L862.854 590.144L854.235 584.095L841.596 573.818L838.156 570.799L829.538 564.15L826.668 561.731L815.179 550.253L803.69 538.766L792.202 527.289L787.612 522.45L781.863 517.011L775.544 510.973L764.055 500.095L752.576 488.608L750.846 486.799L738.208 476.521L726.149 466.853L724.429 465.034L709.491 459.595L703.751 457.186L688.243 454.766L675.034 452.347L672.735 451.747L662.396 450.537L646.887 448.718L630.8 446.908L615.291 445.098L599.783 443.279L591.173 442.679L575.665 441.469L559.577 439.66L544.069 438.45L534.31 437.84H503.293L486.635 438.45L471.697 433.611L464.237 431.192L452.749 420.314L452.169 419.715L451.019 417.895L443.56 403.398L436.09 388.892L434.941 386.472L426.322 373.176L417.133 359.279L407.944 345.982L407.373 344.772L394.155 335.105L381.526 325.427L380.377 324.827" stroke="#003994" stroke-width="1.92013" stroke-miterlimit="10" stroke-linecap="round" stroke-linejoin="round"/>
</g>
<mask id="mask4_1_3" style="mask-type:luminance" maskUnits="userSpaceOnUse" x="-794" y="-214" width="1952" height="641">
<path d="M-793.085 -213.055H1157.51V426.648H-793.085V-213.055Z" fill="white"/>
</mask>
<g mask="url(#mask4_1_3)">
<path d="M1210.36 -285.578L1187.38 -266.232L1151.19 -228.761V-228.161L1115.01 -182.832V-182.232L1067.9 -137.503L1034.01 -115.148L989.79 -93.3933L910.528 -35.3671L856.534 18.4201L823.798 57.1008L797.371 99.4008L777.843 126.594L717.53 201.537L677.904 252.304L633.099 316.969L608.402 351.421L578.535 364.718L539.479 370.756L492.374 374.985L462.508 368.337L440.11 347.192L430.341 324.827L426.322 313.34L422.302 301.863L406.223 290.985L381.526 284.337L344.761 284.937L299.965 291.585L233.333 304.882L86.8685 342.353L-21.1194 386.472L-87.7424 417.295L-90.042 417.895L-115.889 423.334L-142.886 417.295L-172.183 400.979L-198.03 375.595L-222.148 344.772L-246.275 321.808L-280.161 301.863L-287.63 298.843L-307.728 289.166L-341.045 272.25L-370.341 268.621L-399.628 277.688L-435.244 283.127L-471.43 290.985L-485.218 292.795L-507.616 278.288L-533.463 260.762L-575.969 248.075L-616.744 224.501L-629.963 211.814L-648.911 192.469L-655.81 184.62L-664.419 174.943L-678.778 165.885L-710.374 153.798L-789.635 116.327L-838.46 100.011L-874.066 86.7138L-890.724 81.875" stroke="#E69800" stroke-width="1.92013" stroke-miterlimit="10" stroke-linecap="round" stroke-linejoin="round"/>
</g>
<mask id="mask5_1_3" style="mask-type:luminance" maskUnits="userSpaceOnUse" x="-174" y="8" width="1332" height="1215">
<path d="M-173.66 8.70319H1157.51V1222.3H-173.66V8.70319Z" fill="white"/>
</mask>
<g mask="url(#mask5_1_3)">
<path d="M1254.58 10.562L1246.54 17.8104L1231.03 32.3169L1213.8 49.8427L1196.57 67.9783L1186.8 87.9235L1167.85 129.014L1166.12 132.643L1165.55 135.062V137.472L1167.85 173.733L1169.57 199.727V201.537L1173.02 206.975L1193.12 240.817L1210.93 268.021L1221.83 277.688L1231.03 285.547L1254.58 298.234M1254.58 1080.88H1245.39L1231.03 1082.09L1214.95 1083.3L1185.08 1084.51L1167.85 1086.32L1142 1093.57L1132.23 1095.38L1104.67 1104.45L1088.58 1115.93L1069.63 1132.85L1055.27 1147.36L1041.48 1165.49L1030 1187.24L1024.26 1199.33L1013.34 1228.94L1011.04 1233.78L1000.7 1265.81L995.53 1283.94L993.239 1293.62M293.646 1293.62L282.727 1284.55L271.239 1277.9L250.561 1265.81L230.463 1254.33L219.545 1248.89L196.577 1241.64L183.358 1237.41L156.371 1228.94L130.524 1226.53L117.306 1224.71L93.1879 1222.9L68.4905 1225.32L55.2725 1225.92L30.0049 1228.34L0.708315 1234.99L-6.18115 1236.8L-33.1781 1243.45L-49.8362 1248.29L-95.2113 1264.6L-96.3611 1265.2H-97.5109L-98.6607 1265.81L-144.606 1282.13L-160.114 1288.18L-172.183 1293.62" stroke="#734C00" stroke-width="1.28009" stroke-miterlimit="10" stroke-linecap="round" stroke-linejoin="round"/>
</g>
<mask id="mask6_1_3" style="mask-type:luminance" maskUnits="userSpaceOnUse" x="-406" y="-214" width="1564" height="1437">
<path d="M-405.789 -213.055H1157.51V1222.3H-405.789V-213.055Z" fill="white"/>
</mask>
<g mask="url(#mask6_1_3)">
<path d="M-273.842 -285.577L-286.48 -271.671L-289.35 -268.052L-291.65 -264.423V-258.374L-295.099 -207.006V-197.938L-291.65 -192.5L-286.48 -184.042L-265.223 -153.219L-250.864 -131.464L-234.786 -119.377L-223.297 -110.919L-191.71 -98.2222L-191.131 -97.6222L-160.114 -84.9253L-141.166 -84.3254L-114.169 -83.7156L-96.3611 -82.5059L-75.1038 -87.3447L-58.455 -91.5738L-33.1781 -97.0125L-8.48071 -104.871L9.89742 -110.309L30.0049 -116.358L40.3438 -119.977L81.1197 -131.464L89.7385 -134.484L93.1879 -135.693L98.3573 -136.903L137.413 -150.8L156.371 -156.238L185.088 -167.726L193.127 -170.145L219.545 -179.813L231.033 -185.851L256.31 -197.938L272.968 -208.216L282.728 -213.055L312.024 -233.6L322.363 -239.639L345.911 -254.145L351.08 -258.984L358.549 -264.423L382.676 -285.577M1254.58 -111.519L1252.28 -109.1L1231.03 -89.7641L1218.39 -78.2769L1203.46 -64.9801L1183.93 -48.064L1167.85 -34.7672L1148.89 -17.8413L1126.49 1.49415L1116.16 13.5813L1104.67 26.8781L1086.29 48.6329L1070.78 67.9782L1062.73 90.333L1051.25 124.785L1047.8 135.062L1048.37 141.711L1052.97 189.449L1053.54 201.537L1067.33 228.73L1071.35 236.588L1087.44 268.021L1095.48 277.688L1104.67 288.566L1125.35 312.74L1145.44 334.495L1157.51 345.372L1167.85 353.23L1195.99 371.366L1212.65 381.634L1231.03 392.511L1236.77 394.931L1254 400.979H1254.58M1254.58 987.2L1243.66 986.6L1231.03 986L1217.24 984.79L1183.93 982.971L1167.85 981.761L1151.19 982.371L1119.6 984.18H1104.67L1093.18 987.2L1051.82 999.896L1044.35 1002.32L1041.48 1003.53L1025.41 1016.81L1007.6 1030.72L978.301 1060.33L975.431 1063.35L973.711 1066.37L969.682 1075.44L953.604 1106.87L943.835 1132.85L936.376 1155.22L929.477 1184.22L925.457 1199.33L923.158 1207.8L915.118 1245.27L911.099 1261.58L909.949 1265.81L908.229 1273.06L902.489 1293.62M406.794 1293.62L394.155 1281.53L376.357 1265.81L359.699 1251.31L345.911 1240.43L322.933 1223.5L286.177 1199.33L284.457 1197.52L282.728 1196.92L277.558 1193.89L243.101 1174.55L219.545 1163.07L197.726 1155.22L167.85 1144.94L156.371 1140.71L149.472 1139.5L113.286 1132.85L96.628 1129.23L93.1879 1128.02L88.0185 1127.42L36.8944 1125L30.0049 1124.4L22.5359 1125L-32.6078 1132.25H-33.7483L-35.4777 1132.85L-85.4426 1144.33L-96.3611 1147.36L-118.189 1155.22L-133.117 1160.66L-160.114 1170.33L-179.072 1179.39L-220.998 1196.92L-223.297 1198.13H-223.877L-225.597 1199.33L-268.672 1218.06L-286.48 1225.32L-312.898 1238.01L-331.285 1246.48L-349.663 1255.54L-355.982 1259.16L-367.471 1265.81L-393.889 1285.76L-401.928 1293.62" stroke="#734C00" stroke-width="1.92013" stroke-miterlimit="10" stroke-linecap="round" stroke-linejoin="round"/>
</g>
<mask id="mask7_1_3" style="mask-type:luminance" maskUnits="userSpaceOnUse" x="-547" y="-214" width="1705" height="1437">
<path d="M-546.98 -213.055H1157.51V1222.3H-546.98V-213.055Z" fill="white"/>
</mask>
<g mask="url(#mask7_1_3)">
<path d="M-424.335 -285.577L-427.775 -280.139L-436.964 -264.423L-433.524 -242.668L-428.925 -214.864L-426.625 -197.938L-412.846 -183.442L-390.439 -155.029L-373.211 -131.464L-359.423 -120.587L-349.663 -112.729L-324.386 -90.9738L-293.37 -64.9801L-288.78 -61.9608L-286.48 -60.1512L-277.861 -55.9221L-246.845 -39.5962L-223.297 -28.1188L-200.9 -21.4704L-175.623 -14.822L-160.114 -9.98321H-148.626L-106.12 -8.17358H-96.361L-85.4426 -9.98321L-49.8361 -16.0317L-33.178 -18.4511L-7.33088 -25.6994L1.28796 -28.1188L30.005 -35.9769L51.2529 -42.6253L79.9699 -51.0834L93.188 -55.3124L100.077 -57.122L123.625 -64.9801L148.322 -73.448L156.371 -75.8575L172.449 -81.906L195.427 -90.3641L219.545 -98.8319L241.372 -108.5L276.408 -124.816L282.728 -127.835L285.027 -129.045L289.047 -131.464L324.663 -153.829L345.911 -167.116L363.139 -179.813L386.116 -197.938L398.755 -208.816L409.094 -216.674L433.791 -238.439L461.938 -264.423L467.107 -269.861L472.277 -274.09L484.915 -285.577M1254.58 -253.545L1248.83 -245.687L1231.03 -221.513L1221.26 -208.216L1213.8 -197.938L1191.4 -173.164L1167.85 -148.99L1159.23 -140.532L1148.89 -131.464L1124.2 -110.309L1104.67 -93.9931L1088.01 -81.906L1066.18 -64.9801L1052.39 -53.5028L1041.48 -43.2253L1017.94 -22.6801L993.81 1.49415L986.92 10.562L978.302 23.249L961.073 50.4524L950.734 67.9782L942.115 96.9814L938.096 110.278L930.627 135.062L931.777 152.588L932.356 182.801L933.497 201.537L946.715 234.779L961.643 268.021L968.542 277.688L978.302 289.775L997.259 313.95L1014.49 334.495L1028.28 347.792L1041.48 359.879L1061.59 379.824L1085.71 400.979L1096.05 410.037L1104.67 416.085L1133.38 437.24L1148.32 446.908L1167.85 459.595L1173.02 462.015L1183.36 467.453L1214.95 484.979L1231.03 492.837L1254.58 501.905M1254.58 888.693H1252.28L1231.03 888.093L1212.08 886.883L1186.23 885.674L1167.85 885.064H1150.04L1123.05 885.674H1104.67L1082.84 889.903L1066.18 892.322L1041.48 897.151L1015.64 905.619L997.829 912.267L978.302 919.516L969.112 923.745L953.034 933.412L930.057 949.129L915.119 962.425L896.17 979.351L877.783 999.896L867.444 1016.21L851.936 1048.84L845.626 1059.72L842.746 1066.37L838.727 1080.28L829.538 1109.28L822.648 1132.85L815.749 1161.26L812.88 1173.95L806.56 1199.33L802.541 1213.84L788.762 1259.76L786.462 1264L785.883 1265.81L769.225 1286.36L763.485 1293.62M549.239 1293.62L535.46 1285.76L525.121 1276.69L511.332 1265.81L488.935 1248.29L472.277 1237.41L452.749 1219.88L424.602 1199.33L415.983 1192.08L409.094 1186.64L380.377 1163.07L361.419 1148.57L345.911 1137.69L343.041 1135.27L339.021 1132.85L305.705 1108.68L282.728 1093.57L265.499 1083.9L230.463 1066.37L223.564 1062.14L219.545 1059.72L208.065 1054.28L180.489 1040.99L156.371 1028.9L135.114 1021.65L101.227 1008.35L93.188 1005.34L72.5102 999.896L39.194 989.619L30.005 987.2L18.5163 987.809L-20.5396 986.6H-33.178L-42.9467 989.619L-85.4426 999.896L-94.0614 1002.32L-96.361 1002.92L-102.68 1005.94L-135.996 1024.67L-160.114 1036.16L-177.352 1047.64L-210.659 1066.37L-218.707 1071.21L-223.297 1073.63L-239.955 1083.9L-258.334 1095.98L-286.48 1111.1L-299.689 1118.96L-328.406 1132.85L-342.764 1140.1L-349.663 1143.13L-368.041 1152.19L-385.849 1161.26L-412.846 1174.55L-428.355 1182.41L-457.072 1199.33L-468.56 1207.19L-476.029 1213.24L-503.017 1236.8L-530.014 1265.81L-533.463 1271.85L-539.203 1282.74L-544.372 1293.62" stroke="#734C00" stroke-width="1.28009" stroke-miterlimit="10" stroke-linecap="round" stroke-linejoin="round"/>
</g>
<mask id="mask8_1_3" style="mask-type:luminance" maskUnits="userSpaceOnUse" x="-665" y="-214" width="1823" height="1437">
<path d="M-664.241 -213.055H1157.51V1222.3H-664.241V-213.055Z" fill="white"/>
</mask>
<g mask="url(#mask8_1_3)">
<path d="M-573.099 -285.577L-585.728 -264.423L-584.578 -245.687L-585.158 -216.074L-584.008 -197.938L-563.33 -172.555L-539.203 -147.78L-531.164 -139.322L-522.545 -131.464L-492.108 -113.938L-476.029 -105.48L-451.902 -89.7641L-413.417 -64.9801L-412.846 -64.3802L-411.697 -63.7704L-373.211 -40.2059L-349.663 -26.3092L-333.005 -16.0317L-303.138 1.49415L-291.65 7.54263L-286.48 10.562L-272.692 16.0007L-246.845 26.8781L-223.297 36.5458L-198.6 42.5943L-180.222 46.8233L-160.114 51.6621L-144.606 52.262L-109.57 54.6814L-96.3612 55.2814L-82.5729 53.4717L-50.4065 50.4524L-33.1782 48.6329L-9.63061 43.1942L3.57808 40.7748L30.0048 34.7362L54.7022 28.0878L73.6599 22.0393L93.1878 16.6006L104.097 12.9813L139.133 1.49415L152.342 -2.73487L156.371 -3.94456L164.41 -6.96389L200.017 -19.051L219.544 -26.3092L246.541 -36.5768L262.629 -43.835L282.727 -51.6833L291.346 -55.9221L308.004 -64.9801L333.272 -78.2769L345.91 -85.5351L373.478 -102.451L402.204 -123.606L409.093 -129.045L410.813 -129.655L411.963 -131.464L446.429 -158.658L472.276 -182.832L480.316 -189.48L488.935 -197.938L514.202 -220.303L535.459 -240.848L548.668 -251.126L563.027 -264.423L583.704 -280.739L589.444 -285.577M1145.44 -285.577L1136.83 -264.423L1121.9 -246.287L1104.67 -223.322L1092.61 -210.635L1081.69 -197.938L1058.71 -179.813L1041.48 -165.916L1021.38 -152.619L994.959 -131.464L985.191 -124.206L978.301 -118.767L949.584 -94.5931L920.867 -64.9801L917.988 -61.9608L915.118 -58.3317L890.421 -24.4897L874.342 1.49415L866.303 17.2104L851.935 47.4233L845.046 61.3298L842.746 67.9782L838.727 81.875L830.117 112.098L824.368 135.062L822.648 165.885L822.068 170.114L820.348 201.537L826.088 228.73L830.117 244.446L834.707 268.021L840.456 279.498L851.935 300.053L864.574 321.198L873.193 334.495L892.72 357.459L915.118 381.634L924.307 390.701L934.646 400.979L957.623 422.734L978.301 441.469L991.51 453.557L1008.17 467.453L1025.41 484.379L1041.48 499.486L1059.86 514.592L1086.86 533.937L1095.48 543.605L1104.67 551.463L1131.66 572.618L1154.63 586.515L1167.85 594.973L1171.29 597.392L1178.19 600.412L1205.19 628.215L1231.03 647.55L1241.37 656.618L1254.58 666.286M1254.58 685.631L1254 691.07L1248.83 715.244L1247.11 733.37L1236.2 738.809L1231.03 740.628L1222.41 742.438L1186.23 752.715L1167.85 756.335L1140.85 761.773L1133.38 764.193L1104.67 769.631L1083.41 777.489L1054.69 785.957L1041.48 790.186L1035.16 793.206L1019.66 799.854L987.49 810.132L978.301 813.151L959.343 820.399L940.395 826.448L915.118 836.715L895.02 845.183L851.935 866.328L812.309 891.712L788.762 909.848L776.123 920.116L762.335 933.412L745.677 954.567L725.579 984.18L718.68 992.638L714.09 999.896L697.432 1028.9L694.562 1033.74L675.034 1066.37L670.435 1074.84L662.396 1087.53L638.848 1108.07L600.933 1132.85L599.783 1133.45H598.063L584.854 1132.85L538.899 1129.23H535.459L529.14 1126.21L496.974 1106.87L472.276 1095.98L456.768 1082.7L432.071 1066.37L419.432 1055.49L409.093 1048.84L383.246 1027.09L350.51 1004.13L345.34 1000.5L343.611 999.896L307.425 973.913L282.727 957.587L268.369 948.529L242.522 933.412L228.163 924.354L219.544 919.516L191.977 903.799L186.808 901.38L156.371 884.464L143.732 879.625L108.696 866.328L96.6279 862.709L93.1878 861.499L88.5886 862.099L37.4739 858.48H30.0048L23.6856 860.29L-10.2008 866.328L-29.1585 870.567L-33.1782 871.167L-40.6472 874.186L-75.1039 889.293L-96.3612 897.151L-119.338 909.238L-151.505 924.354L-160.114 928.583L-162.414 930.393L-168.154 933.412L-202.049 955.177L-223.297 966.654L-242.825 978.742L-277.862 999.896L-283.031 1002.92L-286.48 1005.34L-298.539 1012.58L-323.237 1027.7L-349.663 1042.81L-365.172 1049.45L-400.208 1066.37L-408.827 1070L-412.846 1071.81L-422.035 1075.44L-455.352 1088.14L-476.029 1097.19L-501.867 1105.66L-524.274 1117.14L-539.203 1123.19L-546.672 1125L-561.61 1132.85L-589.177 1146.75L-602.386 1160.05L-624.793 1175.76L-639.152 1199.33L-648.341 1217.46L-656.38 1256.15L-659.829 1265.81L-660.4 1271.25L-661.549 1293.62" stroke="#734C00" stroke-width="1.28009" stroke-miterlimit="10" stroke-linecap="round" stroke-linejoin="round"/>
</g>
<mask id="mask9_1_3" style="mask-type:luminance" maskUnits="userSpaceOnUse" x="-794" y="-214" width="1731" height="1437">
<path d="M-793.085 -213.055H936.731V1222.3H-793.085V-213.055Z" fill="white"/>
</mask>
<g mask="url(#mask9_1_3)">
<path d="M-692.566 -285.577L-702.905 -264.423L-705.204 -239.639L-707.504 -220.303L-710.374 -197.938L-697.165 -165.306L-696.015 -163.497L-682.227 -131.464L-673.608 -123.006L-665.569 -115.748L-636.272 -95.8028L-625.363 -88.5544L-602.386 -74.0479L-596.646 -71.0286L-584.578 -64.9801L-551.841 -51.6833L-539.203 -46.8543L-511.066 -35.3672L-505.896 -32.9478L-476.029 -20.2607L-461.661 -13.0124L-432.374 1.49415L-419.166 8.14256L-412.846 11.1619L-395.038 20.2297L-376.66 30.5072L-349.663 43.804L-333.575 51.6621L-298.539 67.9782L-289.93 72.2073L-286.48 74.0169L-277.861 77.0362L-244.555 90.333L-223.297 98.1911L-194.58 104.84L-186.541 106.659L-160.114 113.298L-140.586 114.507L-113.589 116.927L-96.3611 118.746L-80.2732 117.536L-50.4064 116.927L-33.1781 115.717L-11.9301 112.098L5.87778 109.678L30.0049 105.449L58.1517 98.1911L66.7612 95.7717L93.1879 89.1233L108.696 84.8943L155.791 68.5782H156.371L156.941 67.9782L204.616 52.862L219.545 47.4233L248.841 37.7555L252.291 36.5458L282.728 25.0685L299.386 19.6298L338.442 1.49415L343.611 -0.315476L345.911 -1.52517L351.66 -4.54449L387.846 -20.2607L409.094 -33.5575L429.201 -43.835L456.768 -64.9801L466.528 -71.0286L472.277 -76.4673L503.863 -98.2222L507.883 -101.851L535.46 -128.445L537.18 -129.655L538.9 -131.464L575.086 -156.848L598.643 -179.813L610.122 -185.851L623.91 -197.938L648.607 -211.845L662.396 -222.722L691.683 -233.6L702.601 -240.248L725.579 -252.335H737.067L776.694 -264.423L787.032 -266.232L788.762 -266.842H791.052L811.73 -264.423L841.026 -252.935L850.795 -199.148L851.365 -197.938L850.795 -196.729L826.088 -158.658L818.049 -131.464L806.56 -112.729L788.762 -66.7996L788.182 -65.5899L787.612 -64.9801L787.032 -63.1705L765.205 -22.6801L756.016 1.49415L746.827 24.4587L736.488 56.4911L732.468 67.9782L730.748 74.0169L725.579 96.9814L716.96 125.994L715.24 135.062L714.09 146.54L710.07 185.22L708.921 201.537L710.641 216.643L715.81 257.743L716.96 268.021L719.26 274.059L725.579 289.166L737.638 321.198L743.377 334.495L761.765 362.898L788.762 400.369L789.332 400.979L793.931 406.418L818.629 436.031L847.916 467.453L849.645 469.873L851.935 472.892L877.783 506.744L900.76 533.937L904.78 544.815L915.118 565.97L926.037 588.934L933.497 600.412L932.926 619.147L928.907 652.389L928.327 666.896L922.017 674.144L915.118 680.193L886.401 703.757L868.023 716.454L851.935 727.931L848.495 730.351L842.746 733.37L803.69 749.686L788.762 756.335L759.465 769.631L749.697 774.47L725.579 786.557L716.39 790.786L699.152 799.854L675.604 814.361L662.396 824.628L637.698 840.944L604.382 866.328L601.512 869.357L598.643 871.767L590.024 876.006L559.007 891.112L535.46 901.38L505.593 898.361H502.714L472.277 895.941L453.319 886.883L413.693 871.167L409.094 869.357L407.374 868.148L404.494 866.328L365.438 846.393L345.911 837.325L322.933 824.628L290.197 807.712L282.728 804.083L280.428 802.873L275.259 799.854L236.203 782.328L219.545 775.68L189.108 765.402L186.238 764.802L156.371 756.335L136.834 753.925L110.416 752.106L93.1879 749.686L74.8004 752.715L52.9823 757.544L30.0049 761.173L1.85815 770.841L-8.48072 773.86L-33.1781 782.328L-44.6667 787.767L-69.9343 799.854L-88.3218 808.922L-96.3611 812.541L-121.058 825.838L-130.248 831.277L-160.114 846.393L-172.753 853.032L-196.88 866.328L-213.538 876.606L-223.297 882.045L-251.444 896.551L-256.034 898.97L-286.48 915.287L-299.119 920.116L-325.536 933.412L-341.624 941.27L-349.663 946.109L-367.471 952.148L-388.719 958.196L-412.846 968.464L-440.413 970.883L-451.323 973.303L-476.029 976.322L-507.616 966.054L-508.186 965.445L-539.203 948.529L-546.102 940.671L-548.972 933.412L-550.121 921.935L-558.161 886.883L-559.31 866.328L-558.161 846.993L-559.31 821.009L-558.161 799.854L-558.731 779.909L-560.46 755.735L-561.03 733.37L-566.2 705.576L-567.35 697.109L-572.519 666.896L-581.138 644.531L-597.796 605.85L-599.516 600.412L-600.666 598.602L-602.386 596.183L-629.383 562.341L-655.23 533.937L-660.979 529.099L-665.569 525.469L-682.797 515.802L-701.755 504.924L-728.752 491.028L-746.56 485.589L-783.896 476.521L-791.935 474.102L-797.675 473.502L-853.968 468.663H-856.838L-890.724 467.453M-890.724 1286.36L-876.366 1287.57L-855.118 1292.41L-853.389 1293.62" stroke="#734C00" stroke-width="1.28009" stroke-miterlimit="10" stroke-linecap="round" stroke-linejoin="round"/>
</g>
<mask id="mask10_1_3" style="mask-type:luminance" maskUnits="userSpaceOnUse" x="-794" y="-214" width="1509" height="1062">
<path d="M-793.085 -213.055H714.174V847.111H-793.085V-213.055Z" fill="white"/>
</mask>
<g mask="url(#mask10_1_3)">
<path d="M-789.635 -285.577L-791.935 -279.529L-796.525 -268.652L-797.675 -264.422L-798.254 -257.774L-803.424 -209.426L-804.573 -197.938L-801.694 -187.671L-791.935 -148.38L-788.485 -135.093L-787.336 -131.464L-771.827 -109.709L-762.068 -96.4125L-736.221 -64.9801L-732.201 -61.3608L-728.752 -58.3317L-714.393 -49.2737L-693.136 -35.9769L-665.569 -19.6607L-651.21 -13.6122L-613.875 1.4942L-605.256 5.12328L-602.386 5.72321L-596.646 8.1426L-558.161 21.4394L-539.203 28.0878L-511.636 38.9653L-498.997 43.804L-476.029 52.862L-466.261 57.7008L-443.283 67.9783L-422.606 78.8557L-412.846 83.0847L-385.849 96.3815L-379.53 100.011L-349.663 113.298L-335.305 119.946L-299.119 135.062L-290.5 139.291L-286.48 140.501L-277.291 144.12L-244.555 157.417L-223.297 164.675L-195.15 171.924L-185.391 174.343L-160.114 180.991L-142.306 182.801L-109.57 187.64L-96.361 189.449H-85.4426L-43.5169 190.659H-33.178L-22.2689 189.449L15.0669 185.82L30.005 184.011L50.6827 179.182L69.0609 175.553L93.188 170.114L119.605 162.856L134.543 157.417L156.371 150.769L168.43 147.749L204.616 135.062L216.105 131.433L219.545 130.224L225.294 128.414L267.219 118.136L282.728 113.298L308.575 107.259L318.914 106.049L345.911 98.8009L371.758 95.1719L388.416 90.3331L409.094 86.1041L426.322 86.7138L461.938 79.4556H472.277L488.355 85.5041L515.932 89.1234L535.46 101.82L548.668 121.156L553.258 135.062L560.157 161.046L564.177 171.324L570.496 201.537L576.236 225.111L580.835 248.675L584.854 268.021L588.304 278.898L598.643 312.14L603.812 329.056L605.532 334.495L611.272 347.192L622.76 375.595L636.549 400.979L645.738 417.895L662.396 440.86L672.155 457.186L680.204 467.453L693.983 500.695L694.562 501.905L711.22 533.937L708.341 552.063L706.051 579.866L700.882 600.412L679.624 619.147L662.396 631.844L641.139 645.141L602.083 666.896L598.643 668.705L596.913 669.315L553.258 685.631L535.46 692.88L504.443 699.528L503.864 700.138L472.277 706.176L445.85 705.576L436.661 704.967L409.094 703.757L379.797 697.718H374.628L345.911 692.28L326.953 686.841L295.936 680.792L282.728 677.773L274.688 675.354L232.763 666.896L221.844 665.076L219.545 664.476H217.254L163.26 659.638H156.371L149.472 660.247L97.2076 662.667H93.188L89.7386 663.267L74.2303 666.896L37.474 675.354L30.005 676.563L16.2167 681.402L-11.3505 690.46L-33.178 697.718L-56.7256 708.596L-88.892 725.512L-96.361 729.141L-99.2308 730.96L-103.83 733.37L-140.586 753.925L-160.114 765.402L-181.372 777.489L-217.558 799.854L-220.998 802.273L-223.297 802.873L-227.896 805.293L-266.952 820.399L-286.48 830.067L-315.197 836.115L-323.236 838.535L-349.663 845.783L-373.211 841.554L-389.289 842.154L-412.846 836.115L-431.795 819.799L-445.013 799.854L-456.492 779.309L-469.13 740.628L-472 733.37L-473.15 730.351L-476.029 721.283L-486.368 678.373L-488.658 666.896L-496.127 645.741L-502.447 628.215L-512.206 600.412L-521.975 582.286L-539.203 556.292L-547.252 542.395L-553.561 533.937L-577.118 507.344L-602.386 484.379L-611.575 476.521L-624.213 467.453L-648.911 449.927L-665.569 440.26L-691.996 428.773L-708.074 422.734L-728.752 414.276L-739.661 412.456L-790.206 402.789L-791.935 402.189H-793.655L-812.613 400.979L-852.818 397.95H-858.558L-890.724 395.54" stroke="#734C00" stroke-width="1.28009" stroke-miterlimit="10" stroke-linecap="round" stroke-linejoin="round"/>
</g>
<mask id="mask11_1_3" style="mask-type:luminance" maskUnits="userSpaceOnUse" x="-794" y="-214" width="1224" height="938">
<path d="M-793.085 -213.055H429.397V723.742H-793.085V-213.055Z" fill="white"/>
</mask>
<g mask="url(#mask11_1_3)">
<path d="M-886.135 -285.577L-890.724 -268.652M-890.724 -176.793L-887.855 -165.916V-164.096L-879.815 -131.464L-870.626 -115.148L-855.118 -90.9738L-845.929 -74.6577L-839.03 -64.9801L-816.053 -39.5962L-791.935 -17.8413L-782.166 -8.7735L-768.387 1.49416L-745.41 19.02L-728.752 29.2975L-704.055 41.9845L-681.077 52.262L-665.569 59.5104L-659.25 61.3298L-639.152 67.9782L-613.304 79.4556L-602.386 83.6847L-578.838 92.7525L-567.35 97.5912L-539.203 107.859L-521.404 115.717L-477.749 133.243L-476.029 133.853H-475.45L-473.73 135.062L-434.674 157.417L-412.846 167.695L-391.019 178.572L-358.273 192.469L-349.663 196.098L-346.214 197.907L-337.025 201.537L-303.709 219.672L-286.48 226.921L-258.334 238.408L-247.995 242.027L-223.297 251.095L-210.659 254.724L-162.984 268.021L-160.694 268.621L-160.114 269.23L-158.394 269.83L-110.72 282.527L-96.3611 285.546L-78.5532 286.756L-53.2856 289.166L-33.1781 290.375L-13.0799 289.166L11.6268 287.356L30.0049 286.146L45.5132 284.337L85.1393 275.879L93.1879 275.269L98.9276 274.059L122.475 268.021L151.201 262.582L156.371 260.762L164.41 259.553L206.336 254.114L219.545 251.095L236.782 249.885L266.649 250.495L282.728 249.285L298.236 251.705L343.611 265.601L345.911 266.201L347.06 266.811L349.36 268.021L379.227 298.843L402.774 327.247L408.523 334.495V335.105L409.094 336.914L421.732 387.682L425.752 400.979L425.172 417.895L420.582 455.366L420.003 467.453L415.983 474.711L409.094 481.96L382.676 505.534L359.699 519.431L345.911 528.499L342.461 530.308L326.953 533.937L288.477 539.976H282.728L276.408 540.586L232.183 547.234L219.545 547.834L204.036 550.253L176.469 555.092L156.371 557.502L128.794 562.941L121.905 564.76L93.1879 570.199L69.631 575.637L48.383 581.076L30.0049 585.905L18.5162 588.324L-15.9498 600.412L-30.3083 604.041L-33.1781 604.641L-40.0675 607.67L-78.5532 619.147L-96.3611 627.615L-123.358 639.092L-150.925 657.828L-160.114 662.667L-162.414 663.876L-166.434 666.896L-205.489 685.631L-223.297 697.109L-250.294 704.967L-266.952 712.825L-286.48 720.683L-303.709 715.244L-327.256 709.805L-349.663 700.738L-364.022 682.002L-373.211 666.896L-386.42 639.092L-399.628 614.318L-406.527 600.412L-408.827 596.792L-412.846 591.354L-431.224 553.273L-442.713 533.937L-457.072 513.992L-476.029 495.257L-487.509 479.54L-500.147 467.453L-520.255 447.508L-539.203 434.221L-556.441 419.105L-585.158 400.979L-594.917 393.121L-602.386 388.892L-628.813 373.176L-635.702 368.947L-665.569 354.44L-679.927 349.601L-725.882 337.514L-728.752 336.314H-730.472L-747.71 334.495L-786.765 329.056L-791.935 328.456H-797.675L-847.649 326.037H-863.727L-890.724 324.227" stroke="#734C00" stroke-width="1.92013" stroke-miterlimit="10" stroke-linecap="round" stroke-linejoin="round"/>
</g>
<path d="M389.566 376.195L432.641 385.863L425.172 414.276L435.511 417.895L433.221 429.382L413.113 422.124L414.833 416.685L380.947 408.227L389.566 376.195Z" stroke="#FF0000" stroke-width="1.92013" stroke-miterlimit="10" stroke-linecap="round" stroke-linejoin="round"/>
<path d="M419.432 437.84L410.813 457.785L399.325 454.156L402.204 447.508L387.845 442.679L395.885 428.172L419.432 437.84Z" stroke="#FF0000" stroke-width="1.92013" stroke-miterlimit="10" stroke-linecap="round" stroke-linejoin="round"/>
<path d="M302.256 411.856H280.428V400.369H283.877V396.75H296.516V400.369H302.256V411.856Z" stroke="#FF0000" stroke-width="1.92013" stroke-miterlimit="10" stroke-linecap="round" stroke-linejoin="round"/>
<path d="M325.233 416.085L322.933 430.592L297.666 424.543L304.555 410.037L325.233 416.085Z" stroke="#FF0000" stroke-width="1.92013" stroke-miterlimit="10" stroke-linecap="round" stroke-linejoin="round"/>
<path d="M351.66 367.737V393.121H330.402V367.137L351.66 367.737Z" stroke="#FF0000" stroke-width="1.92013" stroke-miterlimit="10" stroke-linecap="round" stroke-linejoin="round"/>
<path d="M319.493 356.25V379.824H299.965V356.25H319.493Z" stroke="#FF0000" stroke-width="1.92013" stroke-miterlimit="10" stroke-linecap="round" stroke-linejoin="round"/>
<path d="M376.927 393.121V403.398H366.588V393.121H376.927Z" stroke="#FF0000" stroke-width="1.92013" stroke-miterlimit="10" stroke-linecap="round" stroke-linejoin="round"/>
<path d="M371.188 247.466L387.266 244.446L388.986 263.792L372.908 265.601L371.188 247.466Z" stroke="#FF0000" stroke-width="1.92013" stroke-miterlimit="10" stroke-linecap="round" stroke-linejoin="round"/>
<path d="M403.354 248.075L422.302 255.324L415.413 273.459L394.735 264.991L403.354 248.075Z" stroke="#FF0000" stroke-width="1.92013" stroke-miterlimit="10" stroke-linecap="round" stroke-linejoin="round"/>
<path d="M-793.085 1221.69V-213.654H1156.93V1221.69H-793.085Z" stroke="black" stroke-width="1.28009" stroke-miterlimit="10" stroke-linecap="round" stroke-linejoin="round"/>
<path d="M137.983 1221.69V-213.654" stroke="#6E6E6E" stroke-width="1.28009" stroke-miterlimit="10" stroke-linecap="round" stroke-linejoin="round"/>
<path d="M557.857 1221.69V-213.654" stroke="#6E6E6E" stroke-width="1.28009" stroke-miterlimit="10" stroke-linecap="round" stroke-linejoin="round"/>
<path d="M-793.085 488.608H1156.93" stroke="#6E6E6E" stroke-width="1.28009" stroke-miterlimit="10" stroke-linecap="round" stroke-linejoin="round"/>
<path d="M-793.085 47.4233H1156.93" stroke="#6E6E6E" stroke-width="1.28009" stroke-miterlimit="10" stroke-linecap="round" stroke-linejoin="round"/>
</g>
</g>
<defs>
<filter id="filter0_d_1_3" x="-834" y="-254" width="2007" height="1500" filterUnits="userSpaceOnUse" color-interpolation-filters="sRGB">
<feFlood flood-opacity="0" result="BackgroundImageFix"/>
<feColorMatrix in="SourceAlpha" type="matrix" values="0 0 0 0 0 0 0 0 0 0 0 0 0 0 0 0 0 0 127 0" result="hardAlpha"/>
<feOffset dy="4"/>
<feGaussianBlur stdDeviation="2"/>
<feComposite in2="hardAlpha" operator="out"/>
<feColorMatrix type="matrix" values="0 0 0 0 0 0 0 0 0 0 0 0 0 0 0 0 0 0 0.25 0"/>
<feBlend mode="normal" in2="BackgroundImageFix" result="effect1_dropShadow_1_3"/>
<feBlend mode="normal" in="SourceGraphic" in2="effect1_dropShadow_1_3" result="shape"/>
</filter>
<clipPath id="clip0_1_3">
<rect width="720" height="720" fill="white"/>
</clipPath>
<clipPath id="clip1_1_3">
<rect width="1999" height="1492" fill="white" transform="translate(-830 -254)"/>
</clipPath>
</defs>
</svg>
